<?xml version="1.0" encoding="UTF-8" standalone="no"?>
<!DOCTYPE svg PUBLIC "-//W3C//DTD SVG 1.1//EN"
 "http://www.w3.org/Graphics/SVG/1.1/DTD/svg11.dtd">
<!-- Generated by graphviz version 2.40.1 (20161225.0304)
 -->
<!-- Title: controllers_diagram Pages: 1 -->
<svg width="456pt" height="390pt"
 viewBox="0.00 0.00 456.00 390.00" xmlns="http://www.w3.org/2000/svg" xmlns:xlink="http://www.w3.org/1999/xlink">
<g id="graph0" class="graph" transform="scale(1 1) rotate(0) translate(4 386)">
<title>controllers_diagram</title>
<polygon fill="transparent" stroke="transparent" points="-4,4 -4,-386 452,-386 452,4 -4,4"/>
<!-- _diagram_info -->
<g id="node1" class="node">
<title>_diagram_info</title>
<text text-anchor="start" x="242" y="-351.6" font-family="Times,serif" font-size="13.00" fill="#000000">Controllers diagram</text>
<text text-anchor="start" x="242" y="-337.6" font-family="Times,serif" font-size="13.00" fill="#000000">Date: Dec 01 2019 &#45; 15:55</text>
<text text-anchor="start" x="242" y="-323.6" font-family="Times,serif" font-size="13.00" fill="#000000">Migration version: 20191130223418</text>
<text text-anchor="start" x="242" y="-309.6" font-family="Times,serif" font-size="13.00" fill="#000000">Generated by RailRoady 1.5.3</text>
<text text-anchor="start" x="242" y="-295.6" font-family="Times,serif" font-size="13.00" fill="#000000">http://railroady.prestonlee.com</text>
</g>
<!-- WelcomeController -->
<g id="node2" class="node">
<title>WelcomeController</title>
<path fill="none" stroke="#000000" d="M84,-288.5C84,-288.5 185,-288.5 185,-288.5 191,-288.5 197,-294.5 197,-300.5 197,-300.5 197,-369.5 197,-369.5 197,-375.5 191,-381.5 185,-381.5 185,-381.5 84,-381.5 84,-381.5 78,-381.5 72,-375.5 72,-369.5 72,-369.5 72,-300.5 72,-300.5 72,-294.5 78,-288.5 84,-288.5"/>
<text text-anchor="middle" x="134.5" y="-366.3" font-family="Times,serif" font-size="14.00" fill="#000000">WelcomeController</text>
<polyline fill="none" stroke="#000000" points="72,-358.5 197,-358.5 "/>
<text text-anchor="start" x="80" y="-343.3" font-family="Times,serif" font-size="14.00" fill="#000000">show</text>
<polyline fill="none" stroke="#000000" points="72,-335.5 197,-335.5 "/>
<polyline fill="none" stroke="#000000" points="72,-311.5 197,-311.5 "/>
<text text-anchor="start" x="80" y="-296.3" font-family="Times,serif" font-size="14.00" fill="#000000">_layout</text>
</g>
<!-- ApplicationController -->
<g id="node3" class="node">
<title>ApplicationController</title>
<path fill="none" stroke="#000000" d="M12,-.5C12,-.5 149,-.5 149,-.5 155,-.5 161,-6.5 161,-12.5 161,-12.5 161,-247.5 161,-247.5 161,-253.5 155,-259.5 149,-259.5 149,-259.5 12,-259.5 12,-259.5 6,-259.5 0,-253.5 0,-247.5 0,-247.5 0,-12.5 0,-12.5 0,-6.5 6,-.5 12,-.5"/>
<text text-anchor="middle" x="80.5" y="-244.3" font-family="Times,serif" font-size="14.00" fill="#000000">ApplicationController</text>
<polyline fill="none" stroke="#000000" points="0,-236.5 161,-236.5 "/>
<polyline fill="none" stroke="#000000" points="0,-212.5 161,-212.5 "/>
<polyline fill="none" stroke="#000000" points="0,-188.5 161,-188.5 "/>
<text text-anchor="start" x="8" y="-173.3" font-family="Times,serif" font-size="14.00" fill="#000000">_layout</text>
<text text-anchor="start" x="8" y="-158.3" font-family="Times,serif" font-size="14.00" fill="#000000">authenticate</text>
<text text-anchor="start" x="8" y="-143.3" font-family="Times,serif" font-size="14.00" fill="#000000">authorize</text>
<text text-anchor="start" x="8" y="-128.3" font-family="Times,serif" font-size="14.00" fill="#000000">current_user</text>
<text text-anchor="start" x="8" y="-113.3" font-family="Times,serif" font-size="14.00" fill="#000000">current_user=</text>
<text text-anchor="start" x="8" y="-98.3" font-family="Times,serif" font-size="14.00" fill="#000000">deny_access</text>
<text text-anchor="start" x="8" y="-83.3" font-family="Times,serif" font-size="14.00" fill="#000000">handle_unverified_request</text>
<text text-anchor="start" x="8" y="-68.3" font-family="Times,serif" font-size="14.00" fill="#000000">require_login</text>
<text text-anchor="start" x="8" y="-53.3" font-family="Times,serif" font-size="14.00" fill="#000000">sign_in</text>
<text text-anchor="start" x="8" y="-38.3" font-family="Times,serif" font-size="14.00" fill="#000000">sign_out</text>
<text text-anchor="start" x="8" y="-23.3" font-family="Times,serif" font-size="14.00" fill="#000000">signed_in?</text>
<text text-anchor="start" x="8" y="-8.3" font-family="Times,serif" font-size="14.00" fill="#000000">signed_out?</text>
</g>
<!-- PerfilsController -->
<g id="node4" class="node">
<title>PerfilsController</title>
<path fill="none" stroke="#000000" d="M210,-36.5C210,-36.5 293,-36.5 293,-36.5 299,-36.5 305,-42.5 305,-48.5 305,-48.5 305,-237.5 305,-237.5 305,-243.5 299,-249.5 293,-249.5 293,-249.5 210,-249.5 210,-249.5 204,-249.5 198,-243.5 198,-237.5 198,-237.5 198,-48.5 198,-48.5 198,-42.5 204,-36.5 210,-36.5"/>
<text text-anchor="middle" x="251.5" y="-234.3" font-family="Times,serif" font-size="14.00" fill="#000000">PerfilsController</text>
<polyline fill="none" stroke="#000000" points="198,-226.5 305,-226.5 "/>
<text text-anchor="start" x="206" y="-211.3" font-family="Times,serif" font-size="14.00" fill="#000000">create</text>
<text text-anchor="start" x="206" y="-196.3" font-family="Times,serif" font-size="14.00" fill="#000000">destroy</text>
<text text-anchor="start" x="206" y="-181.3" font-family="Times,serif" font-size="14.00" fill="#000000">edit</text>
<text text-anchor="start" x="206" y="-166.3" font-family="Times,serif" font-size="14.00" fill="#000000">index</text>
<text text-anchor="start" x="206" y="-151.3" font-family="Times,serif" font-size="14.00" fill="#000000">new</text>
<text text-anchor="start" x="206" y="-136.3" font-family="Times,serif" font-size="14.00" fill="#000000">show</text>
<text text-anchor="start" x="206" y="-121.3" font-family="Times,serif" font-size="14.00" fill="#000000">update</text>
<polyline fill="none" stroke="#000000" points="198,-113.5 305,-113.5 "/>
<polyline fill="none" stroke="#000000" points="198,-89.5 305,-89.5 "/>
<text text-anchor="start" x="206" y="-74.3" font-family="Times,serif" font-size="14.00" fill="#000000">_layout</text>
<text text-anchor="start" x="206" y="-59.3" font-family="Times,serif" font-size="14.00" fill="#000000">perfil_params</text>
<text text-anchor="start" x="206" y="-44.3" font-family="Times,serif" font-size="14.00" fill="#000000">set_perfil</text>
</g>
</g>
</svg>
