<?xml version="1.0" encoding="UTF-8" standalone="no"?>
<!DOCTYPE svg PUBLIC "-//W3C//DTD SVG 1.1//EN"
 "http://www.w3.org/Graphics/SVG/1.1/DTD/svg11.dtd">
<!-- Generated by graphviz version 2.40.1 (20161225.0304)
 -->
<!-- Title: models_diagram Pages: 1 -->
<svg width="618pt" height="363pt"
 viewBox="0.00 0.00 617.50 363.00" xmlns="http://www.w3.org/2000/svg" xmlns:xlink="http://www.w3.org/1999/xlink">
<g id="graph0" class="graph" transform="scale(1 1) rotate(0) translate(4 359)">
<title>models_diagram</title>
<polygon fill="transparent" stroke="transparent" points="-4,4 -4,-359 613.5,-359 613.5,4 -4,4"/>
<!-- _diagram_info -->
<g id="node1" class="node">
<title>_diagram_info</title>
<text text-anchor="start" x="8" y="-311.1" font-family="Times,serif" font-size="13.00" fill="#000000">Models diagram</text>
<text text-anchor="start" x="8" y="-297.1" font-family="Times,serif" font-size="13.00" fill="#000000">Date: Dec 01 2019 &#45; 15:55</text>
<text text-anchor="start" x="8" y="-283.1" font-family="Times,serif" font-size="13.00" fill="#000000">Migration version: 20191130223418</text>
<text text-anchor="start" x="8" y="-269.1" font-family="Times,serif" font-size="13.00" fill="#000000">Generated by RailRoady 1.5.3</text>
<text text-anchor="start" x="8" y="-255.1" font-family="Times,serif" font-size="13.00" fill="#000000">http://railroady.prestonlee.com</text>
</g>
<!-- ApplicationRecord -->
<g id="node2" class="node">
<title>ApplicationRecord</title>
<ellipse fill="none" stroke="#000000" cx="309" cy="-286.5" rx="77.1866" ry="18"/>
<text text-anchor="middle" x="309" y="-282.8" font-family="Times,serif" font-size="14.00" fill="#000000">ApplicationRecord</text>
</g>
<!-- User -->
<g id="node3" class="node">
<title>User</title>
<path fill="none" stroke="#000000" d="M416.5,-218.5C416.5,-218.5 597.5,-218.5 597.5,-218.5 603.5,-218.5 609.5,-224.5 609.5,-230.5 609.5,-230.5 609.5,-342.5 609.5,-342.5 609.5,-348.5 603.5,-354.5 597.5,-354.5 597.5,-354.5 416.5,-354.5 416.5,-354.5 410.5,-354.5 404.5,-348.5 404.5,-342.5 404.5,-342.5 404.5,-230.5 404.5,-230.5 404.5,-224.5 410.5,-218.5 416.5,-218.5"/>
<text text-anchor="middle" x="507" y="-339.3" font-family="Times,serif" font-size="14.00" fill="#000000">User</text>
<polyline fill="none" stroke="#000000" points="404.5,-331.5 609.5,-331.5 "/>
<text text-anchor="start" x="412.5" y="-316.3" font-family="Times,serif" font-size="14.00" fill="#000000">id :integer</text>
<text text-anchor="start" x="412.5" y="-301.3" font-family="Times,serif" font-size="14.00" fill="#000000">created_at :datetime(6)</text>
<text text-anchor="start" x="412.5" y="-286.3" font-family="Times,serif" font-size="14.00" fill="#000000">updated_at :datetime(6)</text>
<text text-anchor="start" x="412.5" y="-271.3" font-family="Times,serif" font-size="14.00" fill="#000000">email :varchar</text>
<text text-anchor="start" x="412.5" y="-256.3" font-family="Times,serif" font-size="14.00" fill="#000000">encrypted_password :varchar(128)</text>
<text text-anchor="start" x="412.5" y="-241.3" font-family="Times,serif" font-size="14.00" fill="#000000">confirmation_token :varchar(128)</text>
<text text-anchor="start" x="412.5" y="-226.3" font-family="Times,serif" font-size="14.00" fill="#000000">remember_token :varchar(128)</text>
</g>
<!-- Perfil -->
<g id="node4" class="node">
<title>Perfil</title>
<path fill="none" stroke="#000000" d="M446,-.5C446,-.5 568,-.5 568,-.5 574,-.5 580,-6.5 580,-12.5 580,-12.5 580,-169.5 580,-169.5 580,-175.5 574,-181.5 568,-181.5 568,-181.5 446,-181.5 446,-181.5 440,-181.5 434,-175.5 434,-169.5 434,-169.5 434,-12.5 434,-12.5 434,-6.5 440,-.5 446,-.5"/>
<text text-anchor="middle" x="507" y="-166.3" font-family="Times,serif" font-size="14.00" fill="#000000">Perfil</text>
<polyline fill="none" stroke="#000000" points="434,-158.5 580,-158.5 "/>
<text text-anchor="start" x="442" y="-143.3" font-family="Times,serif" font-size="14.00" fill="#000000">id :integer</text>
<text text-anchor="start" x="442" y="-128.3" font-family="Times,serif" font-size="14.00" fill="#000000">idade :integer</text>
<text text-anchor="start" x="442" y="-113.3" font-family="Times,serif" font-size="14.00" fill="#000000">altura :float</text>
<text text-anchor="start" x="442" y="-98.3" font-family="Times,serif" font-size="14.00" fill="#000000">sexo :boolean</text>
<text text-anchor="start" x="442" y="-83.3" font-family="Times,serif" font-size="14.00" fill="#000000">peso :float</text>
<text text-anchor="start" x="442" y="-68.3" font-family="Times,serif" font-size="14.00" fill="#000000">objetivo :varchar</text>
<text text-anchor="start" x="442" y="-53.3" font-family="Times,serif" font-size="14.00" fill="#000000">atividade :varchar</text>
<text text-anchor="start" x="442" y="-38.3" font-family="Times,serif" font-size="14.00" fill="#000000">user_id :integer</text>
<text text-anchor="start" x="442" y="-23.3" font-family="Times,serif" font-size="14.00" fill="#000000">created_at :datetime(6)</text>
<text text-anchor="start" x="442" y="-8.3" font-family="Times,serif" font-size="14.00" fill="#000000">updated_at :datetime(6)</text>
</g>
<!-- User&#45;&gt;Perfil -->
<g id="edge1" class="edge">
<title>User&#45;&gt;Perfil</title>
<path fill="none" stroke="#f54d5d" d="M507,-210.2185C507,-204.1966 507,-198.0603 507,-191.9073"/>
<ellipse fill="none" stroke="#f54d5d" cx="507" cy="-214.398" rx="4" ry="4"/>
<polygon fill="#f54d5d" stroke="#f54d5d" points="507.0001,-191.5539 511.5,-181.5538 507,-186.5539 507,-181.5539 507,-181.5539 507,-181.5539 507,-186.5539 502.5,-181.5539 507.0001,-191.5539 507.0001,-191.5539"/>
</g>
</g>
</svg>
