<?xml version="1.0" encoding="UTF-8" standalone="no"?>
<!DOCTYPE svg PUBLIC "-//W3C//DTD SVG 1.1//EN"
 "http://www.w3.org/Graphics/SVG/1.1/DTD/svg11.dtd">
<!-- Generated by graphviz version 2.40.1 (20161225.0304)
 -->
<!-- Title: models_diagram Pages: 1 -->
<svg width="471pt" height="158pt"
 viewBox="0.00 0.00 470.55 158.00" xmlns="http://www.w3.org/2000/svg" xmlns:xlink="http://www.w3.org/1999/xlink">
<g id="graph0" class="graph" transform="scale(1 1) rotate(0) translate(4 154)">
<title>models_diagram</title>
<polygon fill="transparent" stroke="transparent" points="-4,4 -4,-154 466.5473,-154 466.5473,4 -4,4"/>
<!-- _diagram_info -->
<g id="node1" class="node">
<title>_diagram_info</title>
<text text-anchor="start" x="8" y="-135.6" font-family="Times,serif" font-size="13.00" fill="#000000">Models diagram</text>
<text text-anchor="start" x="8" y="-121.6" font-family="Times,serif" font-size="13.00" fill="#000000">Date: Dec 01 2019 &#45; 15:55</text>
<text text-anchor="start" x="8" y="-107.6" font-family="Times,serif" font-size="13.00" fill="#000000">Migration version: 20191130223418</text>
<text text-anchor="start" x="8" y="-93.6" font-family="Times,serif" font-size="13.00" fill="#000000">Generated by RailRoady 1.5.3</text>
<text text-anchor="start" x="8" y="-79.6" font-family="Times,serif" font-size="13.00" fill="#000000">http://railroady.prestonlee.com</text>
</g>
<!-- ApplicationRecord -->
<g id="node2" class="node">
<title>ApplicationRecord</title>
<ellipse fill="none" stroke="#000000" cx="309" cy="-111" rx="77.1866" ry="18"/>
<text text-anchor="middle" x="309" y="-107.3" font-family="Times,serif" font-size="14.00" fill="#000000">ApplicationRecord</text>
</g>
<!-- User -->
<g id="node3" class="node">
<title>User</title>
<ellipse fill="none" stroke="#000000" cx="432" cy="-111" rx="27.0966" ry="18"/>
<text text-anchor="middle" x="432" y="-107.3" font-family="Times,serif" font-size="14.00" fill="#000000">User</text>
</g>
<!-- Perfil -->
<g id="node4" class="node">
<title>Perfil</title>
<ellipse fill="none" stroke="#000000" cx="432" cy="-18" rx="30.5947" ry="18"/>
<text text-anchor="middle" x="432" y="-14.3" font-family="Times,serif" font-size="14.00" fill="#000000">Perfil</text>
</g>
<!-- User&#45;&gt;Perfil -->
<g id="edge1" class="edge">
<title>User&#45;&gt;Perfil</title>
<path fill="none" stroke="#042b95" d="M432,-84.4432C432,-72.4479 432,-58.268 432,-46.0949"/>
<ellipse fill="none" stroke="#042b95" cx="432" cy="-88.6262" rx="4" ry="4"/>
<polygon fill="#042b95" stroke="#042b95" points="432.0001,-46.0192 436.5,-36.0191 432,-41.0192 432,-36.0192 432,-36.0192 432,-36.0192 432,-41.0192 427.5,-36.0192 432.0001,-46.0192 432.0001,-46.0192"/>
</g>
</g>
</svg>
